<?xml version="1.0" encoding="UTF-8" standalone="no"?>
<svg
   xmlns:dc="http://purl.org/dc/elements/1.1/"
   xmlns:cc="http://creativecommons.org/ns#"
   xmlns:rdf="http://www.w3.org/1999/02/22-rdf-syntax-ns#"
   xmlns:svg="http://www.w3.org/2000/svg"
   xmlns="http://www.w3.org/2000/svg"
   viewBox="0 0 666.66669 666.66669"
   height="666.66669"
   width="666.66669"
   xml:space="preserve"
   id="svg2"
   version="1.1"><metadata
     id="metadata8"><rdf:RDF><cc:Work
         rdf:about=""><dc:format>image/svg+xml</dc:format><dc:type
           rdf:resource="http://purl.org/dc/dcmitype/StillImage" /></cc:Work></rdf:RDF></metadata><defs
     id="defs6"><clipPath
       id="clipPath20"
       clipPathUnits="userSpaceOnUse"><path
         id="path18"
         d="M 0,500 H 500 V 0 H 0 Z" /></clipPath></defs><g
     transform="matrix(1.3333333,0,0,-1.3333333,0,666.66667)"
     id="g10"><path
       id="path12"
       style="fill:#f6f0eb;fill-opacity:0;fill-rule:nonzero;stroke:none"
       d="M 0,0 H 500 V 500 H 0 Z" /><g
       id="g14"><g
         clip-path="url(#clipPath20)"
         id="g16"><g
           transform="translate(175.5993,260.1779)"
           id="g22"><path
             id="path24"
             style="fill:#412c29;fill-opacity:1;fill-rule:nonzero;stroke:none"
             d="m 0,0 c -0.008,-0.032 -0.018,-0.063 -0.028,-0.094 0.08,0.073 0.16,0.146 0.24,0.22 C 0.212,0.151 0.17,0.147 0.179,0.122 0.12,0.081 0.06,0.041 0,0" /></g><g
           transform="translate(166.2799,317.0475)"
           id="g26"><path
             id="path28"
             style="fill:#412c29;fill-opacity:1;fill-rule:nonzero;stroke:none"
             d="m 0,0 c -0.039,-0.109 -0.077,-0.218 -0.116,-0.327 0.002,-0.001 0.003,-0.001 0.004,-0.002 0.053,0.146 0.107,0.292 0.163,0.437 C 0.048,0.111 0.045,0.113 0.042,0.115 0.028,0.077 0.014,0.039 0,0" /></g><g
           transform="translate(257.8883,387.9772)"
           id="g30"><path
             id="path32"
             style="fill:#412c29;fill-opacity:1;fill-rule:nonzero;stroke:none"
             d="m 0,0 c -0.024,-0.046 -0.05,-0.096 -0.075,-0.142 0.042,0.075 0.088,0.15 0.13,0.225 C 0.038,0.054 0.021,0.029 0,0" /></g><g
           transform="translate(158.1681,295.3415)"
           id="g34"><path
             id="path36"
             style="fill:#412c29;fill-opacity:1;fill-rule:nonzero;stroke:none"
             d="M 0,0 C 0.003,0.037 0.007,0.073 0.01,0.109 0.001,0.074 -0.008,0.039 -0.017,0.004 -0.011,0.003 -0.005,0.001 0,0" /></g><g
           transform="translate(157.2233,259.8063)"
           id="g38"><path
             id="path40"
             style="fill:#412c29;fill-opacity:1;fill-rule:nonzero;stroke:none"
             d="M 0,0 V -0.004 C 0.001,0.001 0.001,0.007 0.002,0.013 -0.001,0.006 -0.001,-0.002 -0.004,-0.008 -0.004,-0.004 0,-0.004 0,0" /></g><g
           transform="translate(452.0114,195.2429)"
           id="g42"><path
             id="path44"
             style="fill:#412c29;fill-opacity:1;fill-rule:nonzero;stroke:none"
             d="m 0,0 c -2.772,3.862 -3.815,8.734 -5.921,13.013 -0.577,1.803 -1.652,3.299 -3.06,4.299 C -3.389,17.203 1.221,14.493 3.008,9.06 2.964,4.935 2.615,-1.934 0,0 M -26.461,15.622 C -39.444,14.963 -36.148,3.51 -51.288,1.66 -56.729,0.496 -64.217,4.72 -68.707,0.833 c -2.288,-2.772 -3.911,-6.103 -6.927,-8.22 -4.231,-3.381 -10.612,-3.252 -15.215,-0.604 -7.547,4.37 -10.71,13.213 -15.447,20.137 -7.337,11.346 -18.43,20.856 -32.066,12.696 -0.061,-0.04 -0.072,-0.104 -0.116,-0.153 -6.3,4.733 -9.705,2.568 -14.68,-0.718 0.131,0.148 0.262,0.297 0.391,0.446 10.563,10.568 22.359,17.423 36.579,22.26 4.559,1.584 9.176,2.945 13.852,4.098 1.119,-0.466 2.229,-0.897 3.323,-1.233 1.749,-0.524 3.713,-1.272 5.502,-0.521 1.573,0.546 1.792,2.565 0.86,3.785 0.192,0.031 0.383,0.064 0.576,0.094 5.889,1.1 11.891,1.959 17.902,1.642 -6.431,0.684 -12.95,0.372 -19.421,-0.594 -5.434,6.658 -14.51,7.927 -22.076,3.813 -2.494,-1.361 -5.122,-2.289 -7.652,-3.572 -3.684,-2.019 -6.867,-4.818 -10,-7.585 -3.794,-3.461 -7.645,-6.869 -11.279,-10.498 0.347,0.563 0.697,1.125 1.043,1.685 3.215,5.053 5.758,10.443 8.148,15.909 0.774,1.08 1.55,2.159 2.345,3.224 8.578,12.013 16.585,23.076 32.251,25.347 5.863,1.285 11.985,2.064 18.01,2.235 4.983,0.297 10.067,0.031 14.543,-2.502 5.604,-3.046 10.123,-6.346 15.466,-7.061 -8.037,-2.143 -16.062,-4.713 -24.185,-2.794 11.138,-3.253 22.435,1.682 33.479,3.058 14.403,2.333 30.093,-5.282 35.668,-19.079 1.251,-2.977 2.06,-6.202 1.962,-9.456 -10.904,9.278 -24.995,16.233 -39.703,14.784 1.552,-0.366 3.334,-0.569 4.969,-0.846 5.437,-0.982 10.943,-1.85 16.168,-3.701 6.643,-2.47 12.756,-6.241 18.567,-10.27 -0.002,-0.049 0.006,-0.098 0.004,-0.147 -0.407,-3.832 -1.061,-8.064 1.18,-11.558 6.61,-9.584 7.849,-11.085 7.707,-23.116 -0.281,1.008 -0.666,1.981 -1.376,2.826 -3.495,4.331 -9.914,5.519 -15.181,3.995 -0.19,-0.006 -0.373,0.011 -0.567,-0.008 -4.219,-0.511 -8.04,-2.76 -12.358,-3.009 m -27.668,-23.08 c 11.613,-8.355 13.501,-14.95 13.447,-28.922 -0.131,-9.704 -5.311,-18.099 -11.504,-25.269 4.003,9.015 5.075,19.96 -0.04,28.78 0.265,-1.523 0.73,-3.202 0.994,-4.798 0.579,-4.339 1.044,-8.706 0.781,-13.099 -0.485,-3.897 -1.24,-7.819 -2.352,-11.572 -0.707,-0.803 -1.419,-1.602 -2.143,-2.374 -4.121,-4.282 -6.707,-10.754 -12.625,-12.845 -2.188,-0.755 -5.047,-0.191 -7.262,-0.919 6.923,8.408 8.63,20.07 9.438,30.626 -0.368,-4.087 -1.626,-8.357 -2.638,-12.452 -1.705,-6.17 -4.017,-12.526 -8.382,-17.368 -2.327,-2.44 -5.499,-3.778 -8.486,-5.223 -2.589,-1.335 -5.459,-1.948 -8.375,-2.126 6.482,8.854 7.755,21.142 6.078,31.79 -2.113,9.691 -9.192,22.939 -17.498,28.548 -1.617,1.043 -3.184,2.169 -4.857,3.115 2.224,-1.594 4.616,-3.403 6.516,-5.507 6.833,-8.031 12.53,-17.729 14.343,-28.252 1.181,-10.068 -0.576,-20.686 -5.248,-29.735 -0.931,-0.035 -1.865,-0.037 -2.793,0.009 -0.763,0.029 -1.531,0.087 -2.293,0.004 -2.376,0.136 -7.202,-4.747 -7.85,-0.429 0.195,3.718 2.178,7.028 3.632,10.395 2.267,5 3.829,10.557 2.621,16.048 -1.722,9.071 -10.33,15.026 -19.119,16.097 -9.44,0.499 -20.799,4.105 -23.505,14.328 -0.367,1.207 -0.622,2.635 -0.863,3.962 4.703,2.361 8.835,5.528 11.738,10.252 3.072,5.023 2.881,11.011 2.851,16.69 -0.005,1.073 -0.045,2.158 -0.113,3.246 7.231,-3.475 13.218,-9.111 19.039,-14.552 10.738,-9.768 18.447,-22.163 25.072,-34.979 -5.241,18.529 -26.013,42.684 -44.115,49.587 -0.415,6.645 -2.159,13.37 -7.349,17.898 -0.067,0.057 -0.127,0.099 -0.193,0.154 0.135,0.064 0.279,0.105 0.413,0.173 0.384,-0.13 0.766,-0.262 1.147,-0.399 -0.039,0.052 -0.073,0.105 -0.101,0.163 -0.251,0.072 -0.502,0.143 -0.753,0.213 -0.081,0.009 -0.168,0.024 -0.253,0.041 0.186,0.093 0.37,0.193 0.567,0.259 13.495,6.081 23.086,-4.235 29.607,-14.99 5.324,-8.668 10.599,-20.486 22.292,-20.907 5.7,-0.515 10.907,2.836 14.098,7.365 1.035,1.479 1.903,3.046 3.152,4.039 4.574,-1.777 9.041,-3.949 12.884,-7.065 m -121.478,-26.927 c -2.278,-1.467 -3.978,-3.638 -6.14,-5.243 -3.023,-2.114 -7.009,-2.688 -9.362,-5.753 -2.67,-3.491 -2.874,-8.111 -3.544,-12.298 -0.522,-4.195 -1.752,-8.249 -4.412,-11.656 -3.514,-4.535 -10.141,-3.874 -14.519,-7.065 -1.411,-1.079 -2.379,-2.647 -3.918,-3.577 -2.17,-1.165 -4.557,0.45 -6.82,0.371 -2.053,0.031 -3.655,-1.534 -5.661,-1.687 -0.936,0.067 -1.711,0.513 -2.437,1.061 3.319,7.771 6.6,15.847 11.005,23.141 -4.98,-6.832 -9.965,-14.371 -11.276,-22.96 -0.813,0.657 -1.558,1.447 -2.365,2.045 -3.59,3.176 -8.678,3.985 -13.217,2.676 -1.385,-0.258 -2.81,-0.92 -4.227,-0.616 -2.593,1.585 -1.813,6.11 -2.071,8.791 -0.256,6.648 0.106,13.383 -1.209,19.94 -1.965,8.839 -5.467,17.448 -2.366,26.505 1.23,4.443 3.047,8.794 3.308,13.444 -0.273,10.71 -1.185,19.745 8.704,26.752 3.419,2.657 7.875,3.506 11.562,5.748 1.588,0.87 3.483,1.795 4.468,3.285 -2.608,-2.707 -6.54,-3.473 -9.96,-4.76 0.811,5.06 0.053,14.747 5.695,16.962 2.371,0.342 4.919,0.747 6.454,2.812 1.999,2.495 3.3,5.491 5.669,7.706 9.107,7.454 23.656,9.172 33.225,1.534 2.225,-1.687 4.432,-3.463 6.466,-5.436 1.849,-1.942 3.107,-4.385 4.926,-6.376 2.485,-3.067 6.868,-4.016 8.702,-7.699 0.41,-0.756 0.713,-1.556 0.977,-2.371 -12.508,10.402 -40.356,15.481 -54.011,6.226 -0.908,-0.605 -1.779,-1.28 -2.63,-1.968 1.238,0.547 2.55,1.315 3.889,1.855 11.375,4.728 24.281,4.186 35.968,0.779 5.882,-1.606 11.814,-3.635 16.86,-7.13 0.419,-1.346 0.765,-2.722 1.209,-4.055 -1.434,0.825 -3.045,1.556 -4.606,2.166 -19.723,7.171 -38.986,2.34 -52.683,-13.605 16.208,14.403 30.915,18.017 51.977,12.437 1.79,-0.383 3.583,-0.743 5.365,-1.163 0.137,-0.401 0.307,-0.787 0.478,-1.174 0.029,-0.199 0.119,-0.371 0.275,-0.514 0.226,-0.45 0.411,-0.919 0.713,-1.337 0.061,-0.087 0.142,-0.169 0.206,-0.256 -7.187,0.996 -14.616,-0.514 -21.538,-2.649 -16.376,-5.668 -31.581,-15.746 -42.003,-29.732 -7.76,-10.368 -13.473,-22.347 -16.915,-34.822 -1.986,-6.323 -2.136,-12.946 -2.644,-19.48 4.626,35.689 22.877,67.255 57.728,80.662 8.062,3.442 16.969,4.491 25.63,5.698 0.376,-0.491 0.785,-0.953 1.235,-1.397 -10.467,-1.313 -20.891,-8.013 -28.88,-15.284 8.586,6.622 18.886,11.104 28.943,15.226 1.343,-1.309 2.971,-2.314 4.883,-2.218 3.005,0.346 5.207,2.46 7.612,4.181 4.562,-3.864 6.841,-10.065 8.532,-15.69 -0.159,5.971 -3.54,12.457 -8.512,15.704 1.276,0.912 2.607,1.718 4.155,2.075 4.593,0.854 8.528,-2.889 11.151,-6.219 3.134,-4.112 3.852,-9.294 4.088,-14.355 0.072,-4.55 0.431,-9.306 -0.632,-13.794 -3.934,-13.712 -19.911,-16.959 -31.888,-20.637 -4.038,-1.151 -8.136,-2.374 -11.612,-4.806 m 21.432,-4.498 c 2.776,-1.221 5.756,-2.688 7.357,-5.406 0.808,-1.113 0.713,-2.718 1.605,-3.739 1.772,-1.162 4.122,-0.833 6.103,-1.476 7.778,-2.152 12.943,-8.748 17.744,-14.901 -2.844,1.524 -5.479,3.488 -8.29,5.087 -4.789,2.759 -10.019,4.632 -14.973,7.065 -10.977,5.169 -22.551,12.328 -35.045,11.88 1.028,0.877 1.993,1.832 2.987,2.747 7.388,2.05 15.335,1.823 22.512,-1.257 m 21.758,-25.922 c -3.126,-0.422 -6.307,-0.216 -9.236,1.076 -6.845,3.088 -12.355,8.64 -18.553,12.83 -5.824,4.111 -12.262,7.099 -18.867,9.709 10.6,-0.013 20.486,-5.303 29.884,-9.804 5.004,-2.562 10.187,-4.737 15.318,-7.024 4.35,-1.926 8.338,-4.6 12.655,-6.58 0.179,-0.228 0.36,-0.46 0.537,-0.686 -3.877,0.596 -7.82,0.846 -11.738,0.479 m -135.574,3.47 c -3.235,-1.146 -6.911,-1.672 -10.154,-0.167 -0.607,0.351 -1.419,0.766 -2.169,0.717 -2.008,12.948 -2.719,26.409 -0.054,39.368 4.442,19.587 13.468,37.066 26.793,51.867 3.552,-1.263 7.312,-1.953 11.222,-1.902 0.465,0.037 0.964,0.014 1.448,0.048 -0.092,-1.801 -0.15,-3.579 -0.324,-5.225 -7.421,-2.717 -13.887,-9.32 -15.13,-17.29 -1.097,-5.012 0.205,-10.103 -0.534,-15.126 -3.851,-16.383 -6.692,-16.751 -1.663,-34.381 1.032,-3.527 1.525,-7.144 1.778,-10.79 -3.259,-3.078 -6.926,-5.723 -11.213,-7.119 m -13.23,0.2 c -1.234,-1.243 -1.613,-3.072 -2.622,-4.485 -3.573,-6.24 -10.616,-8.912 -17.532,-9.4 -5.077,-0.183 -10.149,0.409 -15.222,1 -6.669,0.776 -13.339,1.551 -20.025,0.572 -2.657,-0.449 -5.003,-1.524 -7.144,-2.948 0.952,5.25 1.763,10.731 3.475,15.768 -2.113,-4.925 -4.132,-10.499 -3.842,-16.033 -5.378,-3.735 -9.334,-9.847 -12.813,-15.156 -0.408,2.455 0.667,4.847 0.93,7.331 0.141,1.059 0.301,2.121 0.454,3.181 0.763,2.946 1.715,5.849 2.788,8.691 2.846,8.149 6.348,16.086 10.62,23.609 12.083,20.508 28.228,38.515 46.945,53.228 -12.303,-11.993 -20.595,-27.519 -25.085,-44.066 -2.549,-10.542 -5.37,-21.471 -3.982,-32.379 3.688,30.563 9.598,53.933 30.085,77.2 5.858,4.546 11.942,8.801 18.25,12.68 6.732,4.251 13.538,8.391 20.591,12.088 0.502,0.262 1.024,0.526 1.538,0.79 0.033,-0.012 0.065,-0.027 0.098,-0.039 -22.692,-18.031 -36.826,-63.647 -26.967,-91.373 -0.186,-0.06 -0.374,-0.111 -0.54,-0.259 m -72.653,33.675 c 2.897,12.884 9.012,25.268 18.312,34.784 10.533,10.775 22.85,19.97 36.901,25.668 2.363,0.971 4.754,1.871 7.161,2.731 8.157,-4.545 17.693,-6.299 26.943,-6.705 1.426,-0.054 2.862,0.003 4.293,0.04 -3.437,-1.921 -6.851,-3.886 -10.216,-5.931 -4.462,-2.622 -8.809,-5.436 -13.085,-8.35 -11.527,-0.748 -23.446,2.563 -34.215,6.717 6.407,-5.142 15.08,-6.759 23.105,-7.727 3.519,-0.315 7.065,0.044 10.539,0.623 -10.759,-7.382 -20.847,-15.702 -30.005,-24.967 -2.63,-0.487 -6.249,-1.606 -9.289,-1.743 -8.167,-0.713 -16.406,-0.454 -24.597,-0.238 3.147,-0.784 6.563,-1.507 9.883,-1.693 8.114,0.022 16.289,1.019 23.984,3.655 -5.754,-5.824 -11.18,-11.976 -16.114,-18.555 -2.954,-3.568 -5.683,-7.311 -8.227,-11.175 -5.087,-1.369 -10.548,-2.304 -15.721,-3.506 5.451,-0.731 10.601,1.201 15.538,3.224 -3.069,-4.689 -5.836,-9.571 -8.261,-14.622 -1.84,-0.595 -3.956,-1.33 -5.868,-2.075 2.058,-0.094 4.035,1.168 5.863,2.065 -2.388,-4.974 -4.473,-10.095 -6.191,-15.344 -0.565,-1.595 -1.097,-3.21 -1.59,-4.837 0.71,5.053 1.317,10.121 1.291,15.215 -0.08,10.93 -2.656,21.871 -0.434,32.746 m 83.954,68.99 c 3.986,-4.258 8.704,-7.808 13.941,-10.115 -1.301,-0.698 -2.592,-1.417 -3.883,-2.136 -4.813,0.425 -9.767,1.108 -14.525,2.144 -5.601,1.389 -11.339,2.854 -16.864,4.385 5.983,2.125 12.089,3.906 18.308,5.204 1.003,0.205 2.014,0.353 3.023,0.518 m -12.681,32.644 c -2.377,7.847 -7.013,16.295 -15.461,18.615 -7.243,2.487 -11.742,-6.274 -9.553,-12.33 0.894,-2.651 2.441,-4.978 4.282,-7.054 -1.247,1.149 -2.45,2.338 -3.477,3.686 -2.746,4.397 -3.348,9.937 -1.588,14.837 2.87,8.434 11.911,12.388 16.519,19.574 0.421,0.732 0.746,1.499 1.036,2.28 0.492,0.031 1.017,0.085 1.49,0.064 17.914,-0.978 33.625,-11.672 47.71,-21.95 -6.292,7.251 -14.782,12.429 -23.338,16.744 -7.661,3.738 -16.128,6.843 -24.789,5.368 -0.339,-0.046 -0.687,-0.093 -1.035,-0.142 0.908,2.475 1.397,5.104 2.886,7.371 2.666,3.954 8.078,5.131 12.572,4.306 9.055,-1.935 16.097,-8.984 25.234,-10.765 7.08,-1.438 14.566,-2.278 20.791,-6.364 0.732,-0.523 1.763,-1.211 2.476,-1.86 0.094,-0.097 0.233,-0.099 0.354,-0.148 3.839,-11.315 10.284,-22.239 20.481,-28.761 6.69,-4.647 14.603,-6.125 22.409,-7.848 7.017,-1.479 14.093,-5.015 17.047,-11.964 2.003,-4.951 3.088,-10.688 1.951,-16.052 -0.22,-1.206 -0.559,-2.392 -0.879,-3.582 -0.003,0.33 0.023,0.661 0.009,0.989 h -0.002 c -0.045,-0.51 -0.094,-1.023 -0.142,-1.535 -0.229,-0.805 -0.481,-1.595 -0.75,-2.388 -0.394,5.365 -2.691,10.601 -5.772,14.991 -3.466,5.238 -7.637,10.802 -13.204,13.722 4.033,-2.425 6.866,-6.533 9.583,-10.333 4.127,-5.933 7.158,-12.55 8.954,-19.567 -0.062,-0.17 -0.123,-0.341 -0.187,-0.51 -0.367,0.795 -0.798,1.561 -1.391,2.249 -0.678,0.94 -1.553,1.647 -2.471,2.304 -8.838,17.021 -25.831,31.581 -43.912,37.486 -1.107,0.324 -2.321,0.73 -3.401,0.917 2.902,-1.287 5.786,-2.61 8.645,-3.984 15.876,-7.059 29.321,-19.298 38.287,-34.151 -1.662,1.135 -3.462,2.112 -4.825,3.618 -2.442,2.689 -4.118,6.107 -7.078,8.345 -4.924,4.272 -10.498,8.447 -17.218,8.986 -9.59,0.888 -20.846,-2.283 -26.244,-10.757 -1.489,-2.1 -2.716,-4.915 -5.462,-5.54 -1.306,-0.275 -2.684,-0.379 -3.846,-1.093 -3.785,-2.764 -4.589,-7.277 -4.9,-11.828 -3.869,0.616 -7.931,0.549 -11.701,1.934 -10.703,3.665 -19.201,12.612 -24.309,22.55 -3.053,6.074 -4.101,13.017 -5.781,19.57 m -8.555,-15.589 c 0.531,6.287 3.473,12.235 5.693,18.159 0.232,-0.588 0.469,-1.177 0.672,-1.762 1.259,-4.277 2.07,-8.669 3.253,-12.949 -3.064,-1.489 -6.304,-2.632 -9.618,-3.448 m -3.756,9.573 c 0.013,-0.19 0.039,-0.377 0.048,-0.567 0.011,-0.103 0.017,-0.206 0.025,-0.308 0.025,-0.776 -0.015,-1.55 -0.071,-2.317 -0.099,0.162 -0.25,0.359 -0.426,0.571 -0.065,0.092 -0.144,0.189 -0.17,0.242 -4.002,5.508 -10.318,9.996 -11.077,17.255 -0.291,4.097 2.687,9.354 7.398,8.062 2.558,-0.576 4.713,-1.829 6.579,-3.45 -0.218,-0.173 -0.43,-0.361 -0.625,-0.534 -2.44,-2.289 -4.05,-5.602 -3.977,-8.982 -0.011,-3.464 1.775,-6.62 2.296,-9.972 m 0.17,-3.195 c -0.02,-0.108 -0.012,-0.222 -0.037,-0.329 10e-4,0.017 -0.021,0.051 -0.025,0.071 0.033,0.079 0.032,0.177 0.062,0.258 m -0.046,-0.063 c -0.005,-0.058 -0.017,-0.111 -0.025,-0.168 -0.002,0.008 -0.006,0.018 -0.009,0.027 0.012,0.047 0.022,0.095 0.034,0.141 m -16.99,-6.073 c 1.401,4.623 4.399,8.676 6.599,13.023 -3.686,-3.277 -5.603,-8.23 -6.615,-13.02 -1.752,0.41 -3.495,0.861 -5.224,1.337 2.09,5.374 5.33,10.291 8.367,15.215 -4.933,-3.539 -6.948,-9.568 -8.406,-15.205 -0.092,0.025 -0.185,0.047 -0.276,0.072 -7.353,2.238 -13.393,7.503 -19.354,12.175 -9.67,7.612 -19.486,17.174 -32.278,18.599 0.292,0.191 0.563,0.409 0.851,0.604 6.357,2.601 12.735,5.815 19.218,8.293 14.594,5.622 30.689,6.29 45.887,2.82 -1.215,-1.161 -2.386,-2.361 -3.417,-3.677 -5.828,-6.679 -6.575,-17.372 -0.88,-24.358 3.344,-4.008 8.464,-5.908 11.98,-9.699 0.115,-0.154 0.238,-0.319 0.349,-0.466 0.035,-0.007 0.029,0.018 0.054,0.019 -0.003,-0.038 10e-4,-0.076 -0.003,-0.113 0.006,-0.025 0.025,-0.008 0.029,0.008 0.011,0.041 0.019,0.084 0.03,0.124 0.01,0.004 0.025,0.005 0.033,0.011 -0.003,-0.009 -0.002,-0.022 -0.005,-0.031 0.004,0.01 0.004,0.023 0.007,0.032 0.011,0.01 0.045,0.002 0.049,0.017 -0.002,-0.01 -10e-4,-0.021 -0.003,-0.031 0.004,0.01 0.005,0.024 0.009,0.033 10e-4,0.003 0.003,0.006 0.003,0.009 0.341,0.748 0.509,1.662 0.568,2.588 0.02,0.204 0.001,0.394 0.009,0.599 0.051,0.168 0.072,0.438 0.051,0.819 -0.006,0.13 -0.02,0.277 -0.035,0.426 -0.004,0.036 -0.006,0.069 -0.009,0.105 -0.038,6.265 -3.917,11.563 2.984,17.145 2.433,-2.596 4.26,-5.865 5.605,-9.195 -4.133,-5.121 -5.659,-11.976 -5.601,-18.531 -1.833,-0.449 -3.676,-0.837 -5.524,-1.093 -5.072,-0.563 -10.103,0.189 -15.052,1.346 m -4.197,58.052 c 6.907,0.604 13.973,1.18 20.85,-0.042 1.013,-0.167 2.061,-0.384 3.101,-0.59 -0.474,-1.504 -0.987,-2.996 -1.862,-4.359 -2.108,-2.892 -4.881,-5.265 -7.572,-7.716 -14.998,3.589 -30.914,3.479 -45.503,-1.821 -7.064,-2.408 -13.571,-6.342 -20.102,-9.978 4.761,3.373 9.097,7.312 13.783,10.784 10.796,8.091 23.926,12.35 37.305,13.722 m -3.048,16.654 c 5.183,1.542 10.975,3.147 14.522,7.48 -4.738,-2.836 -9.666,-5.322 -14.772,-7.436 -1.881,0.321 -3.761,0.632 -5.63,0.939 -9.896,1.98 -19.666,5.046 -28.738,9.492 9.758,1.02 20.398,2.688 27.556,9.792 14.495,-8.439 29.817,-15.882 42.294,-27.141 -1.747,-0.662 -3.323,-1.669 -4.595,-3.008 -9.189,5.669 -19.92,8.047 -30.637,9.882 m -51.756,21.415 c -5.588,4.796 -10.379,10.44 -14.335,16.634 1.34,-0.359 2.782,-0.64 4.152,-0.891 8.207,-1.09 17.136,-0.344 24.538,3.584 7.831,-5.995 16.008,-11.554 24.31,-16.861 1.973,-1.227 3.976,-2.418 5.992,-3.592 -8.494,-4.968 -18.059,-8.17 -27.696,-9.732 -3.434,1.692 -6.75,3.606 -9.945,5.724 9.449,-0.155 19.335,1.459 27.41,6.589 0.875,0.554 1.705,1.171 2.518,1.813 -0.226,-0.023 -0.528,-0.277 -0.801,-0.379 -9.359,-3.846 -19.26,-7.452 -29.47,-7.8 -2.291,1.533 -4.537,3.14 -6.673,4.911 m -27.274,61.455 c 6.103,-8.777 13.451,-16.696 21.06,-24.18 6.332,-6.439 13.198,-12.282 20.347,-17.767 -3.242,-0.885 -6.693,-1.394 -10.04,-1.901 -6.104,-0.912 -12.352,-1.838 -18.511,-0.832 -5.192,8.165 -8.899,17.288 -10.986,26.745 1.888,-0.792 4.169,-1.376 6.238,-1.741 2.138,-0.278 4.307,-0.042 6.394,0.45 -4.131,0.352 -8.589,0.166 -12.643,1.355 -0.453,2.06 -0.861,4.13 -1.158,6.215 -0.668,3.856 -0.301,7.789 -0.701,11.656 m 4.17,10.96 c 11.671,-2.946 23.804,-2.955 35.654,-5.056 8.035,-1.244 16.023,-3.196 23.51,-6.321 0.061,-0.176 0.128,-0.357 0.157,-0.513 2.816,-11.129 5.109,-22.583 4.11,-34.146 -0.855,-6.591 -2.184,-13.181 -3.134,-19.77 7.46,16.825 6.387,36.813 -0.734,53.633 -0.087,0.244 -0.169,0.49 -0.266,0.744 4.86,-2.039 9.512,-4.567 13.809,-7.757 7.882,-6.089 14.242,-13.468 19.618,-21.577 0.202,-0.918 0.422,-1.858 0.571,-2.764 2.29,-13.282 -0.107,-26.782 -1.784,-40.015 3.315,7.742 4.206,16.332 4.126,24.752 0.153,5.603 -0.426,11.165 -2.334,16.46 -0.117,0.41 -0.239,0.82 -0.358,1.231 8.646,-13.146 14.696,-28.212 20.17,-43.03 -0.603,-3.848 -1.603,-7.809 -2.331,-11.717 1.679,3.518 2.158,7.638 2.386,11.568 1.082,-2.932 2.147,-5.856 3.203,-8.749 0.878,-2.384 1.853,-4.733 2.854,-7.07 -0.51,0.106 -1.006,0.248 -1.53,0.317 -1.834,0.217 -3.763,0.101 -5.615,-0.324 -0.457,0.423 -0.912,0.848 -1.373,1.265 -14.118,12.88 -31.988,20.345 -48.035,30.395 -15.832,10.2 -31.295,21.112 -44.601,34.538 -8.231,8.138 -16.223,16.642 -23.098,25.995 -2.157,5.321 -5.953,9.936 -8.331,15.177 4.302,-2.714 8.154,-6.353 13.356,-7.266 m 134.414,-94.022 c -4.585,8.111 -8.674,16.639 -10.37,25.876 -3.126,15.089 -1.697,30.995 3.381,45.517 2.771,8.27 6.373,16.486 12.271,23.034 9.933,10.679 22.254,18.807 34.951,25.877 9.971,5.464 20.461,10.031 29.784,16.622 -10.152,-11.307 -19.331,-23.692 -28.378,-35.947 -7.757,-10.996 -15.431,-22.183 -20.732,-34.617 -2.077,-4.583 -3.908,-9.282 -5.502,-14.058 -1.988,0.239 -3.944,0.687 -5.78,1.587 -0.793,0.438 -1.982,0.837 -2.555,-0.12 -0.664,-2.104 0.997,-4.266 2.376,-5.744 1.137,-1.198 2.441,-2.054 3.835,-2.725 -3.03,-11.072 -4.605,-22.516 -4.121,-34.053 0.236,-6.127 0.796,-12.321 1.847,-18.415 -2.016,2.411 -5.39,3.898 -8.401,4.35 3.005,-0.939 5.591,-2.992 8.411,-4.404 0.596,-3.445 1.353,-6.85 2.363,-10.182 -0.991,0.2 -1.975,0.414 -2.957,0.635 -3.729,5.38 -7.222,11.034 -10.423,16.767 M -190,239.41 c 0.012,-0.355 0.02,-0.713 0.031,-1.069 -6.761,2.83 -14.894,4.269 -21.817,1.353 4.74,6.44 9.622,12.778 14.585,19.048 3.043,3.684 5.396,7.911 8.177,11.749 -2.495,-10.222 -1.322,-20.689 -0.976,-31.081 m -2.501,-36.839 c -0.645,-2.158 -1.405,-4.277 -2.192,-6.384 -2.623,-0.135 -5.311,-0.636 -8.02,-1.533 -5.497,-1.983 -9.911,-6.51 -15.457,-8.29 -6.938,0.824 -14.206,-0.457 -21.143,-0.974 -0.995,-10e-4 -1.995,0.027 -2.993,0.088 3.951,11.859 9.524,23.22 16.244,33.678 2.92,4.494 5.967,8.9 9.063,13.272 5.374,0.563 11.157,1.002 16.5,0.342 -5.324,1.373 -11.14,1.677 -16.392,-0.192 1.648,2.325 3.292,4.654 4.981,6.95 7.235,1.109 14.851,0.551 21.947,-1.379 0.077,-2.468 0.142,-4.946 0.17,-7.43 -2.108,1.321 -5.142,1.946 -7.759,2.046 2.466,-0.703 5.329,-1.008 7.759,-2.063 0.107,-9.456 -0.321,-18.969 -2.708,-28.131 m -30.79,-55.422 c -0.794,-5.134 -2.707,-10.138 -3.965,-15.146 -1.584,-7.266 -2.494,-15.075 -0.309,-22.308 0.013,-0.046 0.031,-0.09 0.044,-0.135 -3.927,2.836 -8.418,4.206 -13.04,5.234 1.345,12.63 9.188,22.756 17.27,32.355 m -20.818,-31.607 c -2.82,8.77 -3.959,18.108 -4.424,27.281 -0.603,11.895 0.901,23.715 3.967,35.153 4.054,-1.511 8.656,-1.922 12.463,-4.051 4.727,-2.801 7.025,-8.094 8.17,-13.542 -8.016,1.092 -16.725,0.852 -23.866,-3.308 7.649,1.987 15.852,3.824 23.883,3.229 0.507,-2.437 0.809,-4.9 0.954,-7.188 0.063,-0.972 0.055,-1.937 0.004,-2.896 -4.764,-5.611 -9.524,-11.243 -13.19,-17.489 -3.078,0.159 -6.543,-0.541 -9.386,-1.954 3.014,0.724 6.226,1.744 9.376,1.936 -2.337,-3.984 -4.235,-8.215 -5.383,-12.861 -0.349,-1.544 -0.567,-3.114 -0.743,-4.688 -0.609,0.126 -1.215,0.255 -1.825,0.378 m 78.304,-41.163 c -2.878,2.116 -6.554,2.152 -9.976,2.283 -4.289,0.232 -9.001,0.21 -12.591,2.956 -0.951,0.675 -2.149,1.757 -1.727,3.076 0.715,1.797 2.827,2.651 4.656,2.876 3.629,0.578 6.956,-0.91 10.262,-2.297 4.064,-1.761 7.347,-4.927 9.376,-8.894 m 6.712,11.597 c -2.087,2.855 -4.071,5.775 -6.183,8.612 -2.851,3.678 -4.98,7.81 -6.524,12.221 -1.045,3.13 -2.275,6.416 -2.105,9.82 -0.013,2.192 0.882,3.942 3.047,2.104 2.754,-2.865 4.407,-6.622 5.845,-10.296 2.667,-7.279 4.16,-14.942 5.92,-22.461 m 2.835,12.453 c -0.191,0.418 -0.377,0.838 -0.564,1.259 -1.658,3.956 -2.856,8.168 -3.336,12.435 -0.308,4.309 0.516,8.643 1.777,12.85 0.661,1.597 2.11,6.915 4.479,5.817 2.131,-2.56 -0.722,-9.93 -1.215,-13.17 -1.698,-6.233 -2.351,-12.795 -1.141,-19.191 m 13.37,28.841 c -0.634,-3.177 -1.556,-6.466 -2.303,-9.672 -1.331,-6.037 -2.041,-12.198 -2.674,-18.342 -3.007,9.024 -2.016,19.224 0.718,28.25 0.357,1.237 2.512,6.43 4.194,5.235 l -0.005,-0.009 c 0.899,-1.657 0.305,-3.693 0.07,-5.462 m -31.879,59.326 c 2.683,-2.451 4.676,-5.472 6.576,-8.544 2.299,-3.548 4.645,-7.073 6.49,-10.888 0.174,-0.313 0.619,-0.038 0.471,0.254 -1.695,3.27 -3.419,6.525 -5.231,9.732 3.848,-3.439 9.186,-4.33 13.506,-6.972 4.105,-3.272 6.474,-8.274 9.425,-12.538 5.647,-8.145 8.444,-14.772 9.015,-24.802 0.962,-7.047 0.251,-14.039 -0.867,-20.994 -3.435,-2.942 -6.05,-6.738 -6.84,-11.347 -0.687,-3.248 -0.049,-6.57 1.281,-9.57 0.137,-3.469 0.709,-6.937 1.235,-10.414 -1.265,-11.052 -3.812,-21.95 -7.904,-32.276 2.116,10.191 0.843,20.812 0.614,31.184 -0.081,14.814 0.588,30.121 5.026,44.342 0.686,3.112 2.028,6.779 0.376,9.775 -1.139,1.714 -3.363,0.959 -4.43,-0.426 -5.305,-6.966 -7.012,-26.808 -1.869,-34.195 -0.787,-7.469 -0.534,-14.968 -0.362,-22.459 0.34,-7.595 1.22,-15.18 0.279,-22.768 -0.524,-4.442 -1.478,-8.836 -3.008,-13.057 -0.626,-1.288 -1.246,-2.578 -1.925,-3.843 -0.488,-0.923 -1.071,-1.782 -1.603,-2.676 0.514,1.272 0.982,2.563 1.366,3.892 4.859,13.136 4.647,27.396 2.901,41.115 -0.76,8.533 -4.143,16.505 -5.248,24.968 -0.274,4.1 0.744,8.3 1.776,12.267 0.804,4.237 4.118,11.864 1.368,15.557 -0.964,1.115 -2.734,1.267 -3.927,0.437 -3.453,-2.771 -4.04,-7.779 -5.048,-11.85 -1.139,-5.416 -0.811,-11.208 1.367,-16.34 0.936,-2.404 2.452,-4.467 3.885,-6.59 0.558,-2.654 1.376,-5.234 2.159,-7.828 2.609,-8.085 3.338,-16.679 3.443,-25.163 0.156,-4.92 -0.051,-9.871 -1.029,-14.706 -1.385,-7.304 -3.716,-14.422 -7.249,-21.02 -0.947,-1.846 -2.046,-3.911 -3.159,-5.724 -0.09,-0.145 -0.091,-0.314 -0.061,-0.473 -0.011,-0.016 -0.018,-0.031 -0.028,-0.048 -0.422,0.386 -0.807,0.807 -1.153,1.24 0.156,0.245 0.297,0.506 0.427,0.717 1.942,3.069 3.675,6.277 4.948,9.683 4.43,12.687 7.239,26.752 3.864,40.015 -1.587,6.001 -4.077,11.745 -5.214,17.865 -1.786,7.566 -2.967,15.616 -6.657,22.58 -1.559,2.596 -3.257,6.422 -6.695,6.607 -1.161,-0.011 -2.335,-0.662 -2.821,-1.743 -1.6,-5.458 1.009,-11.102 2.838,-16.197 2.851,-7.111 7.751,-12.661 13.405,-17.669 2.027,-6.105 4.759,-12.222 5.252,-18.733 0.696,-10.849 -1.421,-21.872 -5.305,-32.037 -1.299,-3.083 -2.842,-6.014 -4.544,-8.945 -0.083,-0.22 -0.248,-0.466 -0.425,-0.719 -0.073,0.137 -0.153,0.272 -0.22,0.412 1.055,2.219 1.668,6.99 2.058,8.178 0.749,2.932 1.385,5.904 1.759,8.909 2.303,16.562 0.68,39.033 -18.658,43.991 -7.118,2.728 -18.699,-3.659 -8.682,-9.72 4.515,-2.535 9.971,-2.114 14.976,-2.043 2.497,-0.02 5.138,0.069 7.357,-1.244 5.222,-10.653 4.989,-23.309 2.689,-34.736 -0.839,-3.548 -1.601,-7.001 -2.537,-10.531 -0.367,1.258 -0.694,2.537 -1.126,3.767 0.03,0.085 0.059,0.171 0.088,0.256 0.012,-0.054 0.031,-0.104 0.043,-0.157 0.007,0.096 -0.003,0.193 0.002,0.29 0.55,1.572 1.118,3.139 1.615,4.728 5.461,15.692 -0.411,30.567 -17.519,34.037 -4.047,1.142 -8.46,1.799 -12.546,2.964 -11.15,3.437 -20.052,11.752 -25.385,22.046 -6.424,11.869 -8.566,22.489 -5.136,35.759 1.357,5.115 3.439,10.112 3.99,15.419 0.656,6.144 0.031,12.467 -2.289,18.223 -5.661,17.007 -21.742,8.415 -27.208,19.939 10.249,-5.145 21.555,0.361 32.311,-1.06 13.424,-1.421 23.129,-12.349 30.773,-22.567 5.14,-6.808 8.518,-14.683 12.88,-21.955 -0.641,1.272 -1.423,2.72 -2.025,4.102 -6.36,15.143 -17.15,31.209 -31.837,39.253 -2.78,1.504 -5.69,2.301 -8.658,2.73 2.59,0.584 5.237,1.639 7.558,2.798 2.652,1.551 5.139,3.131 8.136,4.029 9.267,2.771 20.121,0.672 26.9,-6.493 m 42.391,-114.978 c -0.347,2.223 -0.781,4.428 -0.99,6.668 -0.657,6.004 -0.519,12.405 2.159,17.968 0.667,1.262 2.27,4.075 3.873,2.509 1.685,-3.371 -0.335,-7.218 -0.663,-10.777 -0.782,-5.636 -2.247,-11.07 -4.379,-16.368 m -21.22,-40.295 c -0.039,-0.045 -0.077,-0.09 -0.117,-0.136 0.107,0.151 0.206,0.304 0.311,0.455 -0.065,-0.105 -0.128,-0.214 -0.194,-0.319 m -1.051,-1.021 c 0.059,-0.039 0.122,0.01 0.192,0.023 -0.268,-0.309 -0.534,-0.621 -0.801,-0.93 0.202,0.302 0.409,0.602 0.609,0.907 m 16.76,66.281 c -0.465,-3.511 -0.857,-7.031 -1.214,-10.555 -0.476,3.787 -0.47,7.202 1.214,10.555 m 8.754,17.365 c 1.418,0.806 7.538,4.348 8.449,2.201 -0.501,-2.817 -3.46,-4.498 -5.381,-6.386 -5.817,-5.032 -13.753,-9.82 -14.608,-18.224 -1.793,9.501 2.881,18.247 11.54,22.409 M -149.016,40.37 c 4.735,9.979 8.12,20.591 9.928,31.487 0.075,0.462 0.122,0.928 0.189,1.391 0.419,-9.664 -3.327,-19.047 -7.403,-27.676 -0.998,-1.983 -2.035,-3.974 -3.091,-5.953 0.119,0.255 0.262,0.495 0.377,0.751 m -2.111,-11.74 c -0.484,-0.714 -1.043,-1.41 -1.579,-2.113 -0.362,-0.464 -0.698,-0.944 -1.078,-1.397 -0.021,-0.044 -0.068,-0.102 -0.102,-0.154 -0.894,-1.087 -1.831,-2.15 -2.801,-3.156 -0.029,-0.03 -0.025,-0.074 -0.046,-0.108 -0.179,-0.106 -0.349,-0.213 -0.534,-0.319 -1.111,-0.49 -2.17,-0.341 -3.135,0.124 0.971,0.909 1.891,1.876 2.807,2.843 6.248,6.493 11.383,13.844 16.488,21.223 -3.021,-5.827 -6.371,-11.482 -10.02,-16.943 m 46.652,23.065 c -6.032,-1.55 -11.964,-3.515 -17.654,-5.735 -9.197,-3.557 -18.277,-8.345 -25.344,-15.268 0.267,0.324 0.532,0.651 0.8,0.972 3.208,3.802 6.941,7.089 10.521,10.524 4.371,4.022 8.701,8.034 13.839,11.105 5.85,3.838 11.957,0.995 17.838,-1.598 m 10.743,-0.886 c -0.014,-0.021 -0.033,-0.037 -0.047,-0.056 l 0.003,0.006 c 0.003,-0.004 0.023,0.025 0.044,0.05 m 0.012,0.379 c -0.016,-0.111 -0.004,-0.315 -0.065,-0.442 -0.023,-0.029 -0.047,-0.057 -0.072,-0.083 -0.071,-0.061 -0.151,-0.109 -0.233,-0.151 -0.399,-0.2 -0.854,-0.249 -1.295,-0.256 -7.973,0.807 -15.081,7.274 -23.347,5.725 8.868,4.157 19.356,4.497 25.012,-4.793 m -29.668,29.4 c 4.871,7.435 13.043,12.808 22.172,12.298 1.439,0.001 7.371,-1.237 3.674,-2.853 -8.581,-3.122 -18.514,-3.431 -25.846,-9.445 m -12.168,78.681 c 4.226,12.887 11.743,26.765 25.191,31.673 3.308,0.954 6.663,0.04 10.022,-0.173 -9.572,-9.721 -18.907,-20.419 -23.265,-33.565 2.749,4.71 5.493,9.678 8.494,14.322 4.392,6.789 9.687,13.074 14.948,19.232 0.752,-0.042 1.504,-0.059 2.256,0.004 3.212,0.107 6.114,2.079 9.347,1.723 2.328,-0.267 3.458,-2.458 4.529,-4.266 1.125,-1.875 2.642,-4.117 4.633,-5.17 -2.505,-0.241 -5.041,-1.248 -7.511,-0.872 2.859,-0.706 6.182,0.165 9.219,-0.39 2.678,-0.226 4.842,-1.466 6.862,-2.993 -0.349,-0.269 -0.708,-0.564 -1.05,-0.821 -14.194,-11.776 -25.575,-27.05 -33.421,-43.721 4.853,6.801 8.986,14.319 14.023,21.091 5.707,7.801 11.958,15.231 18.924,21.963 0.514,0.493 1.051,0.966 1.577,1.45 2.453,-1.863 4.694,-4.152 7.345,-5.662 6.134,-4.108 14.62,-2.553 20.198,-7.546 6.972,-8.757 -4.353,-18.194 -9.785,-24.507 -3.153,-2.862 -5.052,-6.418 -6.359,-10.265 -10.029,-11.317 -22.298,-20.555 -31.326,-32.778 4.861,4.493 9.507,9.497 14.23,14.231 5.832,5.828 11.867,11.508 16.928,18.024 -0.617,-1.905 -1.11,-3.87 -1.526,-5.864 -2.285,-9.124 -9.286,-15.919 -16.073,-22.03 -4.857,-4.324 -9.667,-8.703 -14.334,-13.23 -1.282,-1.239 -2.613,-2.433 -3.915,-3.647 -0.068,-0.075 -0.063,-0.179 -0.104,-0.268 -7.169,-1.031 -14.309,-2.671 -20.439,-6.56 -6.646,-4.549 -11.691,-10.96 -16.27,-17.512 2.355,5.502 4.777,10.969 7.781,16.14 5.711,8.041 17.007,7.657 25.619,10.354 4.015,0.89 6.662,4.286 1.698,6.364 -7.937,2.154 -17.131,-0.857 -22.792,-6.71 -2.818,-2.886 -4.789,-6.394 -6.315,-10.101 -4.04,-6.33 -6.479,-13.528 -9.592,-20.332 -0.263,-0.643 -0.574,-1.264 -0.847,-1.902 -2.167,-2.995 -4.35,-5.977 -6.48,-9.002 -1.989,-2.936 -3.973,-5.884 -6.025,-8.781 0.499,0.788 1.012,1.565 1.498,2.362 3.232,5.358 6.424,10.741 9.262,16.319 4.869,9.309 9.515,18.956 11.338,29.407 0.272,3.678 4.348,14.478 -1.205,15.289 -3.485,-0.173 -4.909,-4.178 -5.89,-6.994 -2.003,-7.393 -0.811,-15.179 1.64,-22.313 -3.337,-8.338 -7.483,-16.495 -11.917,-24.415 1.548,3.158 2.926,6.395 4.01,9.754 3.648,9.507 3.162,16.836 2.273,23.02 0.34,3.638 0.603,7.284 0.978,10.918 0.244,2.972 0.675,5.923 1.162,8.868 0.999,1.227 2.198,2.457 3.807,3.711 2.498,2.537 19.199,12.529 10.885,15.504 -3.08,0.271 -6.012,-1.669 -8.63,-3.099 -1.278,-0.66 -2.504,-1.431 -3.675,-2.273 0.382,2.448 0.722,4.899 0.924,7.367 0.112,8.857 -0.151,18.031 -2.989,26.493 -0.495,1.297 -1.114,2.53 -1.772,3.744 0.506,2.838 1.145,5.653 1.906,8.435 m 2.635,-259.79 c 8.395,-7.261 22.329,-20.011 13.413,-31.603 -0.362,-1.23 0.23,-2.472 0.592,-3.635 0.655,-1.88 1.271,-3.735 1.609,-5.715 0.974,-6.011 0.953,-12.121 0.214,-18.203 -0.386,6.497 -1.741,13.095 -3.423,19.416 -1.801,7.574 -4.202,15.02 -7.485,22.096 -4.157,10.022 -10.401,18.95 -15.006,28.753 2.998,-4.022 6.279,-7.825 10.086,-11.109 m 3.852,-40.991 c -4.094,4.84 -8.066,9.988 -9.688,16.298 -2.597,11.773 -2.656,24.077 -5.565,35.809 5.257,-11.242 12.696,-21.35 17.171,-32.999 2.607,-6.066 4.41,-12.355 5.979,-18.784 1.609,-6.34 3.127,-12.769 3.996,-19.255 -0.033,-0.25 -0.046,-0.5 -0.081,-0.75 -2.155,7.536 -6.494,14.021 -11.812,19.681 m -39.435,46.193 c -2.738,-4.764 -6.711,-8.845 -9.933,-13.305 -5.644,-7.628 -9.829,-16.348 -16.79,-22.95 0.079,0.372 0.086,0.747 0.146,1.12 4.985,7.679 6.683,17.321 12.312,24.785 7.22,10.722 16.273,21.618 17.196,34.915 1.652,-8.238 1.148,-17.075 -2.931,-24.565 m -18.849,-3.13 c 0.888,0.254 1.684,1.075 1.43,2.054 -5.586,11.123 17.241,14.641 19.638,27.822 -0.817,-14.221 -9.609,-24.613 -17.33,-35.849 -2.182,-3.299 -4.247,-6.676 -5.719,-10.375 -2.125,-4.933 -3.243,-10.297 -5.672,-15.083 0.631,4.584 0.073,9.209 -0.283,13.808 -0.722,6.702 0.687,15.151 7.936,17.623 M 4.643,20.562 c -0.446,4.193 -2.63,7.997 -5.006,11.399 -1.523,2.071 -3.142,4.147 -3.782,6.69 -0.593,2.303 -0.003,4.844 0.209,7.186 0.304,5.263 -1.544,10.382 -4.13,14.893 -6.792,11.539 -20.577,17.996 -33.797,16.407 -2.693,-0.246 -5.378,-0.805 -8.061,-1.462 -4.99,0.625 -9.809,3.559 -14.081,6.146 -7.582,5.169 -15.354,5.067 -24.122,4.31 -1.386,-0.158 -2.785,-0.322 -4.187,-0.496 0.881,0.826 1.766,1.647 2.635,2.492 3.108,3.067 6.45,6.213 9.741,9.172 8.042,7.343 17.263,14.706 20.423,25.581 0.978,3.283 1.508,6.676 2.85,9.853 1.573,3.778 4.692,6.546 7.363,9.546 3.004,3.282 6.008,6.637 8.237,10.512 2.736,4.622 2.819,11.508 -1.764,14.985 -5.863,4.38 -13.924,3.168 -20.067,7.148 -4.882,3.335 -9.185,8.824 -15.711,8.194 -3.451,1.99 -3.442,8.301 -7.449,10.124 -4.246,2.324 -8.588,-0.866 -13.034,-0.663 -4.93,0.445 -10.319,1.666 -14.892,-1.03 -9.471,-5.082 -16.408,-13.986 -20.254,-23.913 -2.002,-4.706 -3.754,-9.88 -4.199,-15.063 -1.151,1.952 -2.388,3.861 -3.511,5.825 -2.273,3.723 -4.502,7.549 -7.299,10.967 -3.69,4.377 -9.829,4.798 -14.585,7.49 -1.693,0.794 -3.08,2.038 -4.351,3.402 -5.17,9.875 -14.292,15.778 -24.63,15.94 1.38,3.844 2.541,7.734 3.381,11.659 1.527,9.562 1.564,19.337 1.343,29.003 -0.117,8.825 -1.35,17.707 -0.35,26.511 0.246,2.463 1.067,4.926 1.242,7.41 0.025,0.596 -0.025,1.339 -0.496,1.768 -1.026,0.912 -2.16,-0.154 -2.985,-0.834 -8.682,-6.373 -18.669,-10.746 -28.144,-15.864 -12.938,-7.12 -25.576,-15.323 -35.784,-26.089 -5.802,-6.111 -9.549,-13.793 -12.396,-21.646 -4.94,-13.013 -6.933,-27.056 -5.782,-40.941 1.063,-11.596 5.077,-22.679 10.842,-32.745 3.332,-6.151 7.038,-12.119 11.461,-17.513 -0.888,0.218 -1.775,0.44 -2.647,0.703 -6.759,2.187 -12.52,6.987 -19.293,9.093 -4.713,10.486 -7.897,21.608 -12.515,32.15 -8.47,20.229 -19.499,41.066 -38.41,53.279 -11.605,7.573 -25.335,10.75 -38.894,12.617 -11.509,1.926 -23.559,1.663 -34.693,5.556 -3.276,1.172 -5.944,3.86 -9.036,5.453 -2.514,1.396 -3.798,0.35 -2.472,-2.122 2.192,-5.085 5.335,-9.683 7.715,-14.664 1.288,-2.876 0.821,-6.169 1.076,-9.245 0.179,-4.227 0.904,-8.403 1.825,-12.526 4.156,-17.944 14.201,-34.788 28.911,-46.026 11.547,-8.495 24.931,-14.18 38.87,-17.36 8.198,-2.047 16.668,-2.797 24.846,-4.94 5.007,-1.221 9.963,-3.184 14.66,-5.339 0.484,-0.219 0.979,-0.426 1.471,-0.636 -0.38,-0.486 -0.732,-0.999 -1.026,-1.562 -0.597,-1.08 -0.999,-2.23 -1.372,-3.391 -0.08,0.015 -0.16,0.034 -0.24,0.048 -15.477,3.205 -34.934,0.534 -49.443,-5.606 -10.83,-4.71 -19.512,-12.863 -28.628,-20.149 -2.655,-2.834 3.176,-2.98 4.852,-3.71 17.456,-5.56 28.473,-22.146 45.013,-29.336 5.235,-1.855 10.766,-2.913 16.277,-3.535 0.883,-0.063 1.767,-0.091 2.651,-0.091 6.915,0 13.809,2.004 19.661,5.668 0.755,-2.612 1.666,-5.177 2.933,-7.641 1.886,-3.7 4.279,-7.261 7.063,-10.495 -7.995,-1.451 -15.801,-3.847 -23.419,-6.645 -17.64,-6.381 -33.479,-17.677 -45.693,-31.87 -9.178,-10.696 -16.035,-27.215 -16.251,-41.349 0.112,-11 2.371,-21.908 0.892,-32.917 -0.597,-5.402 -0.984,-10.833 -1.614,-16.231 -0.083,-1.443 -1.371,-6.302 0.513,-6.724 0.629,0.109 1.013,0.718 1.409,1.172 4.46,5.302 8.474,11.446 14.764,14.734 3.297,1.714 7.24,1.797 10.896,1.801 7.623,0.204 15.131,-1.388 22.717,-1.88 11.904,-0.77 21.945,2.53 27.023,14.069 0.013,-0.008 0.026,-0.01 0.04,-0.017 0.022,-0.056 0.035,-0.117 0.058,-0.173 -0.009,0.053 -0.015,0.107 -0.024,0.159 6.943,-3.716 15.367,-0.008 20.979,4.582 0.844,0.674 1.606,1.418 2.334,2.192 0.155,-3.108 0.197,-6.226 0.249,-9.325 0.359,-3.89 -0.797,-8.837 2.292,-11.83 1.274,-1.157 3.074,-0.754 4.59,-0.404 4.32,1.329 9.281,1.54 12.949,-1.594 1.419,-1.131 2.631,-2.624 4.262,-3.478 2.621,-1.581 5.135,0.427 7.673,1.065 1.38,0.165 2.678,-0.403 4.031,-0.598 1.985,-0.437 4.051,0.13 5.465,1.596 7.067,8.134 15.194,2.365 20.44,14.997 2.845,5.99 1.264,13.325 5.044,18.931 1.851,2.389 4.885,3.123 7.449,4.461 0.006,0.003 0.01,0.007 0.016,0.01 0.76,-0.544 1.478,-1.078 2.17,-1.618 0.324,-0.407 0.642,-0.824 0.974,-1.221 5.111,-6.531 9.758,-13.509 12.435,-21.442 -0.86,-4.709 -4.19,-8.444 -7.9,-11.274 -5.668,-4.64 -17.365,-9.805 -13.321,-18.811 -12.097,-4.715 -9.137,-18.753 -8.512,-28.996 0.017,-2.209 -0.266,-4.471 -0.613,-6.718 -0.187,-0.846 -0.141,-2.134 0.992,-2.147 1.839,0.392 2.869,2.613 4.256,3.801 6.057,6.707 10.192,14.814 15.602,22.005 3.518,4.664 7.745,8.936 10.262,14.28 6.805,15.357 1.553,31.955 -7.743,45.036 6.51,-5.995 12.055,-12.958 17.045,-20.293 2.956,-4.322 5.857,-8.686 8.779,-13.034 1.171,-1.609 1.572,-3.609 2.164,-5.506 2.934,-13.188 2.071,-27.127 5.873,-40.144 3.005,-8.545 9.912,-14.76 15.518,-21.596 3.047,-3.931 4.822,-8.675 6.665,-13.251 0.191,-0.206 0.366,-0.301 0.529,-0.301 1.888,0.001 1.866,12.953 1.897,14.144 -0.117,3.897 -0.309,7.845 -1.438,11.596 -0.407,1.589 -1.157,3.055 -1.294,4.71 0.032,0.561 0.467,0.983 0.768,1.434 4.744,6.649 1.301,15.477 -3.493,21.1 -5.623,7.665 -13.893,12.567 -19.549,20.257 -8.262,10.688 -14.847,22.679 -23.562,33.042 -4.182,5.002 -8.948,9.603 -14.261,13.401 -0.045,0.052 -0.087,0.106 -0.132,0.158 -0.297,0.349 -0.657,0.649 -0.971,0.985 0.323,-0.132 0.637,-0.275 0.957,-0.412 4.627,-1.909 9.05,-4.055 13.306,-6.727 9.22,-5.336 17.444,-15.994 28.478,-16.923 5.092,0.004 10.173,1.329 15.276,0.467 0.517,-0.059 1.338,-0.209 1.542,0.429 0.138,0.554 -0.292,1.067 -0.542,1.53 -1.88,2.696 -4.014,5.215 -6.202,7.665 -3.022,3.297 -6.566,6.202 -10.758,7.87 -2.135,1.016 -4.769,0.954 -6.978,1.805 l 0.008,0.003 c -1.663,7.32 -9.361,10.151 -15.972,11.601 -5.285,1.19 -9.679,1.008 -13.963,-0.322 1.401,0.902 2.872,1.695 4.476,2.332 7.604,2.801 16.537,4.482 24.17,8.039 -0.142,-11.427 11.061,-18.352 21.669,-19.137 10.43,-0.348 21.251,-6.496 21.554,-18.011 0.14,-3.521 -0.78,-6.935 -2.096,-10.273 -1.309,-4.01 -7.413,-13.253 -2.41,-16.237 3.344,-1.438 6.039,2.614 9.499,1.887 0.702,-0.008 1.409,-0.003 2.116,0.004 -0.117,-0.201 -0.212,-0.415 -0.331,-0.614 0.179,0.192 0.312,0.418 0.486,0.615 3.027,0.038 6.063,0.312 8.863,1.547 3.515,1.579 7.184,3.14 10.12,5.69 0.264,0.284 0.467,0.607 0.717,0.9 0.455,0.044 0.932,0.018 1.349,-0.006 h -0.006 c 3.185,-0.571 6.667,-1.124 9.56,0.746 4.355,3.167 7.056,8.064 10.546,12.079 6.419,7.104 12.538,15.021 14.284,24.686 1.006,7.075 0.333,14.548 -1.741,21.383 -1.713,5.151 -5.942,8.778 -10.013,12.112 -4.135,3.26 -8.541,6.387 -13.609,7.982 -0.154,0.04 -0.492,0.135 -0.88,0.225 0.624,0.208 1.329,0.303 2.174,0.207 6.991,-0.853 14.229,-1.98 20.683,1.814 2.406,1.382 4.432,3.339 6.241,5.427 1.794,2.177 3.612,4.661 6.544,5.273 2.276,0.532 4.626,0.654 6.911,1.15 3.738,0.557 7.075,2.964 10.959,2.395 1.493,-0.169 2.744,-1.122 3.452,-2.445 1.221,-2.29 2.163,-4.777 3.182,-7.174 1.398,-2.966 3.813,-12.556 8.475,-8.419 2.057,2.892 1.673,6.737 1.95,10.116 -0.011,3.947 -0.009,7.905 -0.303,11.843" /></g><g
           transform="translate(205.4445,298.6535)"
           id="g46"><path
             id="path48"
             style="fill:#412c29;fill-opacity:1;fill-rule:nonzero;stroke:none"
             d="M 0,0 C 0.462,-0.307 0.918,-0.624 1.368,-0.95 1.281,-0.851 1.195,-0.751 1.111,-0.649 0.743,-0.427 0.373,-0.211 0,0" /></g><g
           transform="translate(205.3292,298.7189)"
           id="g50"><path
             id="path52"
             style="fill:#412c29;fill-opacity:1;fill-rule:nonzero;stroke:none"
             d="M 0,0 C 0.039,-0.022 0.077,-0.044 0.115,-0.065 0.078,-0.041 0.041,-0.016 0.002,0.009 0.003,0.005 0.002,0.002 0,0" /></g><g
           transform="translate(173.7262,292.2873)"
           id="g54"><path
             id="path56"
             style="fill:#412c29;fill-opacity:1;fill-rule:nonzero;stroke:none"
             d="M 0,0 C -0.117,0.071 -0.233,0.142 -0.351,0.212 -0.211,0.108 -0.072,0.001 0.066,-0.104 0.042,-0.071 0.02,-0.036 0,0" /></g><g
           transform="translate(185.3932,253.8054)"
           id="g58"><path
             id="path60"
             style="fill:#412c29;fill-opacity:1;fill-rule:nonzero;stroke:none"
             d="m 0,0 c 2.474,-3.938 5.706,-7.359 9.112,-10.504 4.002,-3.779 8.267,-7.373 13.397,-9.516 C 14.897,-13.787 5.993,-7.853 0,0" /></g><g
           transform="translate(203.9684,131.6686)"
           id="g62"><path
             id="path64"
             style="fill:#412c29;fill-opacity:1;fill-rule:nonzero;stroke:none"
             d="M 0,0 C 0.001,0.014 0.002,0.029 0.003,0.043 0.001,0.027 -0.002,0.012 -0.004,-0.005 c 0,0 0,0.005 0.004,0.005" /></g><g
           transform="translate(285.2164,211.0124)"
           id="g66"><path
             id="path68"
             style="fill:#412c29;fill-opacity:1;fill-rule:nonzero;stroke:none"
             d="m 0,0 c -0.225,0.01 -0.616,-0.266 -0.917,-0.371 -12.512,-5.614 -24.393,-15.095 -30.395,-27.648 8.949,10.584 18.634,21.37 31.142,27.938 C -0.122,-0.063 -0.052,-0.016 0,0" /></g><g
           transform="translate(228.0319,210.3806)"
           id="g70"><path
             id="path72"
             style="fill:#412c29;fill-opacity:1;fill-rule:nonzero;stroke:none"
             d="m 0,0 c 0.002,0.002 0.004,0.003 0.006,0.005 0,-0.001 -0.001,0 -0.002,-0.001 z" /></g><g
           transform="translate(228.048,210.3923)"
           id="g74"><path
             id="path76"
             style="fill:#412c29;fill-opacity:1;fill-rule:nonzero;stroke:none"
             d="M 0,0 C 0.003,0.003 0.006,0.006 0.009,0.01 0.003,0.004 -0.003,-0.001 -0.01,-0.007 -0.007,-0.003 -0.003,0 0,0" /></g><g
           transform="translate(294.86,214.4225)"
           id="g78"><path
             id="path80"
             style="fill:#412c29;fill-opacity:1;fill-rule:nonzero;stroke:none"
             d="m 0,0 c -3.564,-12.501 -10.813,-23.515 -16.915,-34.888 8.384,9.841 14.977,21.912 16.922,34.86 C 0.027,-0.025 0.014,0.008 0,0" /></g><g
           transform="translate(292.7584,214.2595)"
           id="g82"><path
             id="path84"
             style="fill:#412c29;fill-opacity:1;fill-rule:nonzero;stroke:none"
             d="M 0,0 C -4.898,-3.619 -9.39,-8.197 -12.747,-13.372 -8.596,-8.961 -4.644,-4.033 0,0" /></g><g
           transform="translate(298.9479,187.1188)"
           id="g86"><path
             id="path88"
             style="fill:#412c29;fill-opacity:1;fill-rule:nonzero;stroke:none"
             d="M 0,0 -0.001,0.005 C 0,0 0,-0.005 0,-0.01 0,-0.005 0.002,0.002 0.002,0.008 0.001,0.005 0,0.002 0,0" /></g><g
           transform="translate(296.8512,176.5397)"
           id="g90"><path
             id="path92"
             style="fill:#412c29;fill-opacity:1;fill-rule:nonzero;stroke:none"
             d="M 0,0 C -1.012,-3.099 -1.967,-6.333 -3.605,-9.245 1.228,-3.951 2.805,3.529 2.097,10.569 2.03,7.387 1.272,3.336 0,0" /></g><g
           transform="translate(305.1676,199.3942)"
           id="g94"><path
             id="path96"
             style="fill:#412c29;fill-opacity:1;fill-rule:nonzero;stroke:none"
             d="M 0,0 C 0.576,3.697 -0.786,7.456 -2.859,10.541 -1.263,7.344 -0.687,3.582 0,0" /></g><g
           transform="translate(247.3063,367.6315)"
           id="g98"><path
             id="path100"
             style="fill:#412c29;fill-opacity:1;fill-rule:nonzero;stroke:none"
             d="M 0,0 C 0.037,0.005 0.074,0.005 0.112,0.003 -0.094,0.207 -0.302,0.411 -0.509,0.612 -0.461,0.555 -0.414,0.499 -0.367,0.442 -0.246,0.296 -0.125,0.15 0,0" /></g><g
           transform="translate(238.61,321.2975)"
           id="g102"><path
             id="path104"
             style="fill:#412c29;fill-opacity:1;fill-rule:nonzero;stroke:none"
             d="m 0,0 c -0.062,-0.336 0.121,-0.924 0.179,-1.354 1.614,-8.22 5.186,-15.888 9.264,-23.155 2.446,-4.713 5.609,-9.077 9.705,-12.517 C 11.485,-25.947 3.804,-14.086 0.195,-0.917 0.124,-0.62 0.033,-0.277 0,0" /></g><g
           transform="translate(250.5412,288.2131)"
           id="g106"><path
             id="path108"
             style="fill:#412c29;fill-opacity:1;fill-rule:nonzero;stroke:none"
             d="M 0,0 C -3.732,5.417 -7.517,11.17 -9.758,17.486 -8.066,11.093 -4.611,4.865 0,0" /></g><g
           transform="translate(242.693,291.9045)"
           id="g110"><path
             id="path112"
             style="fill:#412c29;fill-opacity:1;fill-rule:nonzero;stroke:none"
             d="m 0,0 c -0.004,0.017 -0.029,0.012 -0.025,-0.004 0.008,-0.075 0.054,-0.163 0.083,-0.229 0.065,-0.16 0.129,-0.319 0.195,-0.477 0.014,0.01 0.028,0.021 0.043,0.03 0.009,0.007 0.018,0.013 0.028,0.019 C 0.307,-0.629 0.291,-0.599 0.275,-0.567 0.175,-0.379 0.071,-0.184 0,0" /></g><g
           transform="translate(261.2936,261.0749)"
           id="g114"><path
             id="path116"
             style="fill:#412c29;fill-opacity:1;fill-rule:nonzero;stroke:none"
             d="m 0,0 c 0.208,-0.191 0.415,-0.385 0.62,-0.579 0.017,0.014 0.033,0.028 0.051,0.041 0.027,0.021 0.056,0.04 0.084,0.057 C 0.708,-0.444 0.66,-0.408 0.613,-0.371 0.271,-0.104 -0.079,0.142 -0.43,0.396 -0.408,0.267 -0.125,0.146 0,0" /></g><g
           transform="translate(295.6832,354.6364)"
           id="g118"><path
             id="path120"
             style="fill:#412c29;fill-opacity:1;fill-rule:nonzero;stroke:none"
             d="M 0,0 C 3.746,-7.528 4.94,-15.993 7.611,-23.929 7.534,-15.475 4.559,-7.053 0,0" /></g><g
           transform="translate(364.2672,370.1125)"
           id="g122"><path
             id="path124"
             style="fill:#412c29;fill-opacity:1;fill-rule:nonzero;stroke:none"
             d="M 0,0 C 0.637,0.826 1.424,1.715 1.976,2.514 1.543,2.076 1.134,1.609 0.722,1.155 c -13.696,-14.829 -25.54,-31.703 -32.083,-50.941 5.572,9.717 10.04,20.282 16.202,29.743 C -10.607,-13 -5.279,-6.503 0,0" /></g><g
           transform="translate(333.9332,301.883)"
           id="g126"><path
             id="path128"
             style="fill:#412c29;fill-opacity:1;fill-rule:nonzero;stroke:none"
             d="M 0,0 C 0.125,0.189 0.25,0.377 0.377,0.564 0.26,0.426 0.144,0.287 0.028,0.146 0.019,0.097 0.01,0.049 0,0" /></g><g
           transform="translate(386.319,368.6594)"
           id="g130"><path
             id="path132"
             style="fill:#412c29;fill-opacity:1;fill-rule:nonzero;stroke:none"
             d="M 0,0 C -0.062,-0.033 -0.107,-0.113 -0.147,-0.207 -0.127,-0.21 -0.106,-0.215 -0.086,-0.22 -0.058,-0.146 -0.028,-0.073 0,0" /></g><g
           transform="translate(324.8717,359.1227)"
           id="g134"><path
             id="path136"
             style="fill:#412c29;fill-opacity:1;fill-rule:nonzero;stroke:none"
             d="m 0,0 c -0.159,-0.256 -0.317,-0.513 -0.477,-0.77 0.025,-0.002 0.049,-0.006 0.074,-0.011 C -0.27,-0.519 -0.135,-0.259 0,0" /></g><g
           transform="translate(360.4498,304.5817)"
           id="g138"><path
             id="path140"
             style="fill:#412c29;fill-opacity:1;fill-rule:nonzero;stroke:none"
             d="M 0,0 -0.029,-0.056 C 0.011,-0.003 0.052,0.048 0.092,0.1 0.062,0.066 0.03,0.033 0,0" /></g><g
           transform="translate(382.5631,252.5895)"
           id="g142"><path
             id="path144"
             style="fill:#412c29;fill-opacity:1;fill-rule:nonzero;stroke:none"
             d="m 0,0 c -1.146,-0.142 -2.293,-0.305 -3.438,-0.467 1.661,-0.105 3.539,-0.112 5.276,-0.225 13.25,0.327 26.438,-2.371 38.711,-7.415 8.006,-3.698 15.89,-8.053 22.926,-13.418 C 47.205,-6.927 22.016,2.832 0,0" /></g><g
           transform="translate(308.4196,223.2106)"
           id="g146"><path
             id="path148"
             style="fill:#412c29;fill-opacity:1;fill-rule:nonzero;stroke:none"
             d="m 0,0 c -0.011,-0.012 -0.002,-0.025 0.012,-0.025 h 0.005 c 16.319,9.167 33.296,11.785 51.82,10.103 1.018,-0.096 2.05,-0.101 3.059,-0.27 -1.197,0.371 -2.681,0.414 -3.993,0.633 C 33.605,12.641 13.873,11.812 0,0" /></g><g
           transform="translate(334.816,227.4909)"
           id="g150"><path
             id="path152"
             style="fill:#412c29;fill-opacity:1;fill-rule:nonzero;stroke:none"
             d="M 0,0 C -7.169,0.297 -15.005,-1.365 -21.333,-4.998 -14.536,-2.693 -7.305,-0.202 0,0" /></g><g
           transform="translate(380.8649,218.0202)"
           id="g154"><path
             id="path156"
             style="fill:#412c29;fill-opacity:1;fill-rule:nonzero;stroke:none"
             d="m 0,0 c 11.639,-3.648 23.971,-5.772 34.729,-11.746 0,-0.003 0.002,-0.005 0.004,-0.007 0,0 0,-0.002 0.001,-10e-4 10e-4,-0.017 0.033,-0.011 0.025,0.004 -4.548,3.113 -9.808,5.126 -14.94,7.09 C 13.46,-2.332 6.729,-0.353 0,0" /></g><g
           transform="translate(397.8346,168.4841)"
           id="g158"><path
             id="path160"
             style="fill:#412c29;fill-opacity:1;fill-rule:nonzero;stroke:none"
             d="M 0,0 C -0.001,0.001 -0.002,0.003 -0.003,0.004 -1.91,4.184 -4.263,8.454 -7.885,11.3 -5.361,7.452 -2.312,3.962 -0.012,-0.029 0.008,-0.041 0.02,-0.004 0,0" /></g><g
           transform="translate(346.2037,193.5329)"
           id="g162"><path
             id="path164"
             style="fill:#412c29;fill-opacity:1;fill-rule:nonzero;stroke:none"
             d="M 0,0 C 0.068,-0.064 0.138,-0.129 0.206,-0.194 L 0.027,0.005 C 0.019,0.003 0.009,0.001 0,0" /></g><g
           transform="translate(320.484,212.6989)"
           id="g166"><path
             id="path168"
             style="fill:#412c29;fill-opacity:1;fill-rule:nonzero;stroke:none"
             d="m 0,0 c 0.081,-0.057 0.163,-0.112 0.244,-0.169 -0.04,0.043 -0.08,0.086 -0.12,0.13 C 0.083,-0.026 0.041,-0.013 0,0" /></g><g
           transform="translate(206.7306,242.5788)"
           id="g170"><path
             id="path172"
             style="fill:#412c29;fill-opacity:1;fill-rule:nonzero;stroke:none"
             d="m 0,0 c -9.247,6.513 -17.657,14.439 -24.48,23.605 -5.611,6.84 -9.834,14.778 -16.19,20.991 -0.645,0.597 -1.338,1.36 -2.042,1.776 0.466,-0.392 0.883,-0.842 1.3,-1.284 7.942,-8.623 13.319,-19.213 20.904,-28.144 C -14.809,10.084 -8.445,3.38 0,0" /></g><g
           transform="translate(258.8405,351.3903)"
           id="g174"><path
             id="path176"
             style="fill:#412c29;fill-opacity:1;fill-rule:nonzero;stroke:none"
             d="m 0,0 c -0.062,0.029 -0.246,0.292 -0.275,0.212 0.163,-0.146 0.326,-0.341 0.479,-0.517 7.419,-9.6 11.473,-21.249 16.427,-32.22 -1.142,5.664 -3.51,11.187 -6.219,16.339 C 7.319,-10.588 4.538,-4.601 0,0" /></g><g
           transform="translate(343.7194,320.8444)"
           id="g178"><path
             id="path180"
             style="fill:#412c29;fill-opacity:1;fill-rule:nonzero;stroke:none"
             d="M 0,0 C -3.823,-4.293 -7.503,-10.61 -10.037,-16.286 -6.492,-11.085 -3.754,-5.156 0,0" /></g><g
           transform="translate(167.3219,188.0222)"
           id="g182"><path
             id="path184"
             style="fill:#412c29;fill-opacity:1;fill-rule:nonzero;stroke:none"
             d="m 0,0 c -11.76,-14.083 -17.985,-49.339 -6.883,-64.974 -4.528,11.107 -5.521,23.667 -3.61,35.56 C -9.168,-19.001 -5.772,-8.799 0,0" /></g><g
           transform="translate(167.3258,188.028)"
           id="g186"><path
             id="path188"
             style="fill:#412c29;fill-opacity:1;fill-rule:nonzero;stroke:none"
             d="M 0,0 C 0,-0.001 -0.001,-0.001 -0.001,-0.001 -0.002,-0.002 -0.003,-0.004 -0.004,-0.006 -0.002,-0.004 -0.001,-0.002 0,0" /></g><g
           transform="translate(170.5407,194.2897)"
           id="g190"><path
             id="path192"
             style="fill:#412c29;fill-opacity:1;fill-rule:nonzero;stroke:none"
             d="M 0,0 V 0.004 C -0.021,0.055 -0.051,-0.035 -0.017,-0.042 2.739,3.37 5.345,7.188 7.491,10.954 4.198,7.887 2.438,3.683 0,0" /></g><g
           transform="translate(189.3839,202.0192)"
           id="g194"><path
             id="path196"
             style="fill:#412c29;fill-opacity:1;fill-rule:nonzero;stroke:none"
             d="m 0,0 c -0.608,-0.58 -1.151,-1.517 -1.705,-2.251 -10.57,-15.092 -15.589,-35.771 -11.038,-53.812 -1.156,19.499 0.986,34.284 10.234,51.802 C -1.771,-2.786 -0.951,-1.353 0,0" /></g><g
           transform="translate(183.9611,134.07)"
           id="g198"><path
             id="path200"
             style="fill:#412c29;fill-opacity:1;fill-rule:nonzero;stroke:none"
             d="M 0,0 C -1.93,5.664 -3.396,11.947 -3.072,18.011 -3.962,12.064 -3.467,5.207 0,0" /></g><g
           transform="translate(187.4425,138.7243)"
           id="g202"><path
             id="path204"
             style="fill:#412c29;fill-opacity:1;fill-rule:nonzero;stroke:none"
             d="m 0,0 c -2.462,14.646 -3.287,30.305 1.563,44.634 0.161,0.446 0.312,0.94 0.5,1.363 C 1.746,45.558 1.523,44.822 1.259,44.263 -3.728,31.165 -5.355,13.16 0,0" /></g><g
           transform="translate(139.067,140.6276)"
           id="g206"><path
             id="path208"
             style="fill:#412c29;fill-opacity:1;fill-rule:nonzero;stroke:none"
             d="m 0,0 c -0.922,-2.961 -1.453,-9.83 -0.167,-14.005 0.209,4.584 -0.578,9.364 0.171,14.01 z" /></g><g
           transform="translate(153.4953,186.3679)"
           id="g210"><path
             id="path212"
             style="fill:#412c29;fill-opacity:1;fill-rule:nonzero;stroke:none"
             d="M 0,0 C -6.356,-10.009 -12.695,-21.098 -13.102,-33.261 -9.724,-21.969 -5.792,-10.232 0,0" /></g><g
           transform="translate(113.4596,122.8581)"
           id="g214"><path
             id="path216"
             style="fill:#412c29;fill-opacity:1;fill-rule:nonzero;stroke:none"
             d="M 0,0 C 1.858,10.059 3.938,20.441 8.217,29.874 3.329,21.01 -1.097,10.527 0,0" /></g><g
           transform="translate(159.9386,205.9304)"
           id="g218"><path
             id="path220"
             style="fill:#412c29;fill-opacity:1;fill-rule:nonzero;stroke:none"
             d="m 0,0 c -0.837,-0.167 -1.729,-0.22 -2.592,-0.274 -4.648,-0.272 -9.354,1.025 -13.872,1.512 3.288,-1.259 6.79,-2.011 10.324,-1.951 C -4.115,-0.692 -1.861,-0.607 0,0" /></g><g
           transform="translate(137.6593,188.9323)"
           id="g222"><path
             id="path224"
             style="fill:#412c29;fill-opacity:1;fill-rule:nonzero;stroke:none"
             d="m 0,0 c -2.074,-0.448 -4.7,-0.937 -7.015,-1 -7.81,-0.352 -15.68,0.357 -23.488,0.696 3.42,-1.18 7.251,-1.894 10.933,-2.126 C -12.985,-2.679 -6.27,-1.971 0,0" /></g><g
           transform="translate(127.5236,178.4724)"
           id="g226"><path
             id="path228"
             style="fill:#412c29;fill-opacity:1;fill-rule:nonzero;stroke:none"
             d="m 0,0 c 0.067,0.035 0.394,0.095 0.346,0.158 -0.387,-0.132 -0.795,-0.192 -1.192,-0.274 -6.383,-1.117 -12.94,-0.47 -19.387,-0.805 1.201,-0.325 2.659,-0.53 3.96,-0.722 C -10.83,-2.309 -5.272,-1.352 0,0" /></g><g
           transform="translate(100.0753,141.1755)"
           id="g230"><path
             id="path232"
             style="fill:#412c29;fill-opacity:1;fill-rule:nonzero;stroke:none"
             d="M 0,0 C 1.315,0.179 2.78,0.747 4.089,1.158 2.839,1.007 1.296,0.452 0,0" /></g><g
           transform="translate(100.8327,365.6027)"
           id="g234"><path
             id="path236"
             style="fill:#412c29;fill-opacity:1;fill-rule:nonzero;stroke:none"
             d="m 0,0 c -6.743,-2.144 -13.645,-4.533 -20.774,-4.731 0,0 0.003,-0.004 0.003,-0.004 -0.029,0.004 -0.058,0.008 -0.083,0.012 h -0.011 c -0.01,0.012 -0.03,0.006 -0.026,-0.012 0.467,-0.117 0.98,-0.075 1.463,-0.092 C -12.7,-4.974 -5.59,-3.816 0,0" /></g><g
           transform="translate(136.484,334.6867)"
           id="g238"><path
             id="path240"
             style="fill:#412c29;fill-opacity:1;fill-rule:nonzero;stroke:none"
             d="M 0,0 C -1.874,-0.664 -4.025,-1.698 -5.936,-2.238 -3.821,-1.98 -1.854,-1.007 0,0" /></g><g
           transform="translate(132.1095,375.2189)"
           id="g242"><path
             id="path244"
             style="fill:#412c29;fill-opacity:1;fill-rule:nonzero;stroke:none"
             d="M 0,0 C -0.415,-7.848 -2.756,-15.644 -4.501,-23.388 -0.343,-16.407 0.315,-8 0,0" /></g><g
           transform="translate(132.1823,382.0182)"
           id="g246"><path
             id="path248"
             style="fill:#412c29;fill-opacity:1;fill-rule:nonzero;stroke:none"
             d="M 0,0 C 0.665,3.264 0.329,6.877 -0.4,10.17 -0.006,6.9 -0.238,3.367 0,0" /></g><g
           transform="translate(131.4533,401.9269)"
           id="g250"><path
             id="path252"
             style="fill:#412c29;fill-opacity:1;fill-rule:nonzero;stroke:none"
             d="M 0,0 C 0.242,-1.688 0.579,-3.617 0.625,-5.41 0.921,-3.697 0.523,-1.692 0,0" /></g><g
           transform="translate(105.4611,398.6071)"
           id="g254"><path
             id="path256"
             style="fill:#412c29;fill-opacity:1;fill-rule:nonzero;stroke:none"
             d="M 0,0 C 0.271,-7.178 -1.512,-14.504 -2.226,-21.725 0.655,-14.962 0.948,-7.262 0,0" /></g><g
           transform="translate(105.444,409.0173)"
           id="g258"><path
             id="path260"
             style="fill:#412c29;fill-opacity:1;fill-rule:nonzero;stroke:none"
             d="M 0,0 C -0.08,-1.661 0.087,-3.666 0.087,-5.436 0.399,-3.757 0.209,-1.727 0,0" /></g><g
           transform="translate(99.4308,386.6232)"
           id="g262"><path
             id="path264"
             style="fill:#412c29;fill-opacity:1;fill-rule:nonzero;stroke:none"
             d="m 0,0 c 0.864,9.011 0.914,18.134 -1.05,27.014 -0.231,0.942 -0.434,2.036 -0.759,2.876 0.088,-0.404 0.167,-0.812 0.242,-1.217 C 0.369,14.707 -1.737,0.56 -2.934,-13.41 -1.181,-9.263 -0.244,-4.555 0,0" /></g><g
           transform="translate(71.0436,419.8439)"
           id="g266"><path
             id="path268"
             style="fill:#412c29;fill-opacity:1;fill-rule:nonzero;stroke:none"
             d="M 0,0 C 1.43,-7.493 -0.137,-15.411 -0.467,-23.038 2.165,-15.807 1.908,-7.447 0,0" /></g><g
           transform="translate(76.6193,411.4352)"
           id="g270"><path
             id="path272"
             style="fill:#412c29;fill-opacity:1;fill-rule:nonzero;stroke:none"
             d="M 0,0 C -0.272,-4.888 -1.128,-10.254 -1.596,-15.302 0.326,-10.569 0.123,-5.083 0,0" /></g><g
           transform="translate(157.5153,337.0241)"
           id="g274"><path
             id="path276"
             style="fill:#412c29;fill-opacity:1;fill-rule:nonzero;stroke:none"
             d="M 0,0 C 3.789,6.689 4.635,14.665 4.531,22.288 4.158,14.778 2.054,7.294 0,0" /></g><g
           transform="translate(60.8742,388.8825)"
           id="g278"><path
             id="path280"
             style="fill:#412c29;fill-opacity:1;fill-rule:nonzero;stroke:none"
             d="m 0,0 c 1.581,-0.491 3.965,-0.501 5.827,-0.675 2.011,-0.113 4.208,0.082 6.002,0.917 C 7.892,0.194 3.912,-0.422 0,0" /></g><g
           transform="translate(140.7682,296.5827)"
           id="g282"><path
             id="path284"
             style="fill:#412c29;fill-opacity:1;fill-rule:nonzero;stroke:none"
             d="m 0,0 c -9.864,-7.788 -17.542,-20.417 -19.671,-32.811 1.119,4.56 3.439,9.019 5.84,13.157 4.212,7.683 9.646,14.71 15.703,21.042 C 1.277,1.025 0.615,0.446 0,0" /></g><g
           transform="translate(121.0817,263.7072)"
           id="g286"><path
             id="path288"
             style="fill:#412c29;fill-opacity:1;fill-rule:nonzero;stroke:none"
             d="M 0,0 V -0.004 C 0.004,0.019 0.012,0.042 0.015,0.065 0.009,0.039 -0.002,0.014 -0.008,-0.012 -0.004,-0.008 -0.004,-0.004 0,0" /></g><g
           transform="translate(118.9162,274.4391)"
           id="g290"><path
             id="path292"
             style="fill:#412c29;fill-opacity:1;fill-rule:nonzero;stroke:none"
             d="M 0,0 C 2.821,8.67 9.61,15.5 15.293,22.468 8.131,17.099 2.464,8.692 -0.034,0.046 -0.041,-0.067 0.038,-0.032 0,0 v -0.001 c 0,0 0,0 0,0.001 C -0.001,0 0.002,-0.002 0.001,-0.001 0,-0.001 0,0 0,0" /></g><g
           transform="translate(140.9357,309.9626)"
           id="g294"><path
             id="path296"
             style="fill:#412c29;fill-opacity:1;fill-rule:nonzero;stroke:none"
             d="M 0,0 C -0.77,-2.733 -0.296,-6.002 1.217,-8.474 0.084,-5.926 0.521,-2.785 0,0" /></g><g
           transform="translate(134.2252,311.3068)"
           id="g298"><path
             id="path300"
             style="fill:#412c29;fill-opacity:1;fill-rule:nonzero;stroke:none"
             d="M 0,0 C -0.986,-2.896 -0.163,-6.261 1.076,-9.016 0.175,-6.193 0.338,-2.987 0,0" /></g><g
           transform="translate(116.1652,307.092)"
           id="g302"><path
             id="path304"
             style="fill:#412c29;fill-opacity:1;fill-rule:nonzero;stroke:none"
             d="M 0,0 C -0.429,-2.067 0.111,-4.471 1.372,-6.236 0.443,-4.381 0.556,-2.06 0,0" /></g><g
           transform="translate(101.1696,278.9001)"
           id="g306"><path
             id="path308"
             style="fill:#412c29;fill-opacity:1;fill-rule:nonzero;stroke:none"
             d="M 0,0 C 0,0 0,0.001 0.001,0.002 0,0.001 0,0 0,0" /></g><g
           transform="translate(117.984,298.3493)"
           id="g310"><path
             id="path312"
             style="fill:#412c29;fill-opacity:1;fill-rule:nonzero;stroke:none"
             d="M 0,0 C -8.257,-3.448 -14.074,-11.126 -16.813,-19.447 -12.893,-10.972 -5.137,-4.39 2.547,0.98 1.756,0.775 0.829,0.332 0,0" /></g><g
           transform="translate(97.0656,282.7927)"
           id="g314"><path
             id="path316"
             style="fill:#412c29;fill-opacity:1;fill-rule:nonzero;stroke:none"
             d="M 0,0 C 0.964,2.383 2.817,4.55 4.335,6.707 2.311,5.08 0.723,2.558 0,0" /></g><g
           transform="translate(104.3732,292.7297)"
           id="g318"><path
             id="path320"
             style="fill:#412c29;fill-opacity:1;fill-rule:nonzero;stroke:none"
             d="M 0,0 C 1.95,1.601 4.402,2.936 6.428,4.585 3.964,3.756 1.735,1.979 0,0" /></g><g
           transform="translate(259.652,408.1389)"
           id="g322"><path
             id="path324"
             style="fill:#412c29;fill-opacity:1;fill-rule:nonzero;stroke:none"
             d="m 0,0 c -12.318,2.14 -28.206,2.439 -39.094,-4.426 11.777,3.735 24.624,5.735 37.069,4.53 C -1.124,0.05 -0.052,-0.158 0.763,-0.113 0.522,-0.091 0.253,-0.041 0,0" /></g><g
           transform="translate(253.5963,402.3884)"
           id="g326"><path
             id="path328"
             style="fill:#412c29;fill-opacity:1;fill-rule:nonzero;stroke:none"
             d="M 0,0 C 0,0 0.005,0 0.005,0 -0.013,0.002 -0.03,0.002 -0.047,0.003 -0.029,0 -0.009,-0.001 0.009,-0.004 0.005,0 0.005,0 0,0" /></g><g
           transform="translate(216.7746,397.2912)"
           id="g330"><path
             id="path332"
             style="fill:#412c29;fill-opacity:1;fill-rule:nonzero;stroke:none"
             d="M 0,0 C 11.532,4.212 24.42,6.308 36.775,5.101 25.76,7.025 9.56,6.35 0,0" /></g><g
           transform="translate(211.4894,383.237)"
           id="g334"><path
             id="path336"
             style="fill:#412c29;fill-opacity:1;fill-rule:nonzero;stroke:none"
             d="M 0,0 C 6.26,1.281 12.999,2.8 19.424,2.584 12.889,3.297 6.059,2.661 0,0" /></g><g
           transform="translate(204.108,344.4064)"
           id="g338"><path
             id="path340"
             style="fill:#412c29;fill-opacity:1;fill-rule:nonzero;stroke:none"
             d="M 0,0 C 7.013,2.642 14.83,4.477 22.4,4.777 14.915,4.969 6.366,4.562 0,0" /></g><g
           transform="translate(207.858,409.4406)"
           id="g342"><path
             id="path344"
             style="fill:#412c29;fill-opacity:1;fill-rule:nonzero;stroke:none"
             d="m 0,0 c 2.486,-3.504 5.09,-7.045 7.036,-10.887 -2.078,9.694 -9.703,17.75 -18.264,22.456 -0.004,0.007 -0.015,0.01 -0.022,0.003 -0.009,-0.042 0.093,-0.077 0.125,-0.096 C -6.617,8.521 -3.261,4.25 0,0" /></g><g
           transform="translate(213.5104,416.3029)"
           id="g346"><path
             id="path348"
             style="fill:#412c29;fill-opacity:1;fill-rule:nonzero;stroke:none"
             d="M 0,0 C 1.851,-2.792 2.785,-6.162 4.686,-8.97 4.137,-5.696 2.241,-2.383 0,0" /></g><g
           transform="translate(212.4503,418.7267)"
           id="g350"><path
             id="path352"
             style="fill:#412c29;fill-opacity:1;fill-rule:nonzero;stroke:none"
             d="M 0,0 C -1.312,3.995 -4.498,7.362 -8.003,9.633 -4.881,7.023 -2.634,3.209 0,0" /></g><g
           transform="translate(187.6681,402.2678)"
           id="g354"><path
             id="path356"
             style="fill:#412c29;fill-opacity:1;fill-rule:nonzero;stroke:none"
             d="M 0,0 C 8.176,-4.53 13.754,-12.491 19.7,-19.499 16.232,-10.865 8.94,-3.871 0.404,-0.142 0.268,-0.078 0.111,-0.001 -0.021,0.038 -0.038,0.046 -0.046,0.021 -0.029,0.013 -0.017,0.008 -0.008,0.004 0.004,0 Z" /></g><g
           transform="translate(184.8092,392.0798)"
           id="g358"><path
             id="path360"
             style="fill:#412c29;fill-opacity:1;fill-rule:nonzero;stroke:none"
             d="M 0,0 C 4.304,-1.301 7.58,-4.965 11.188,-7.582 8.698,-3.765 4.537,-0.883 0,0" /></g><g
           transform="translate(182.4513,364.3068)"
           id="g362"><path
             id="path364"
             style="fill:#412c29;fill-opacity:1;fill-rule:nonzero;stroke:none"
             d="M 0,0 0.004,-0.004 C -0.139,0.016 -0.299,0.029 -0.413,0.004 -0.172,-0.011 0.07,-0.084 0.311,-0.112 0.205,-0.079 0.106,-0.031 0,0" /></g><g
           transform="translate(192.6803,360.4636)"
           id="g366"><path
             id="path368"
             style="fill:#412c29;fill-opacity:1;fill-rule:nonzero;stroke:none"
             d="M 0,0 C -3.012,1.694 -6.485,3.332 -9.918,3.731 -2.899,1.573 2.626,-3.923 7.924,-8.854 6.05,-5.435 3.328,-2.172 0,0" /></g><g
           transform="translate(193.7477,346.6408)"
           id="g370"><path
             id="path372"
             style="fill:#412c29;fill-opacity:1;fill-rule:nonzero;stroke:none"
             d="M 0,0 C -2.189,1.885 -5.395,3.115 -8.187,3.61 -5.355,2.774 -2.722,1.204 0,0" /></g><g
           transform="translate(196.4699,344.6808)"
           id="g374"><path
             id="path376"
             style="fill:#412c29;fill-opacity:1;fill-rule:nonzero;stroke:none"
             d="M 0,0 V -0.017 C 1.507,-1.207 2.879,-2.557 4.406,-3.714 3.508,-2.073 1.603,-0.935 0,0" /></g><g
           transform="translate(225.1974,444.3537)"
           id="g378"><path
             id="path380"
             style="fill:#412c29;fill-opacity:1;fill-rule:nonzero;stroke:none"
             d="M 0,0 C 3.296,-5.165 5.099,-11.449 7.011,-17.352 7.336,-10.858 4.139,-4.833 0,0" /></g><g
           transform="translate(231.5358,445.0573)"
           id="g382"><path
             id="path384"
             style="fill:#412c29;fill-opacity:1;fill-rule:nonzero;stroke:none"
             d="M 0,0 C 2.513,-3.647 3.132,-8.292 4.731,-12.388 4.566,-8.051 2.897,-3.234 0,0" /></g><g
           transform="translate(248.4513,456.5842)"
           id="g386"><path
             id="path388"
             style="fill:#412c29;fill-opacity:1;fill-rule:nonzero;stroke:none"
             d="M 0,0 C 0.613,-1.557 1.117,-3.164 1.717,-4.735 1.688,-3.138 0.765,-1.357 0,0" /></g></g></g></g></svg>